<svg xmlns="http://www.w3.org/2000/svg" viewBox="0 0 1024 1024"><path d="M1018.6 531.3c8.6-18.6 4.6-41.4-11.4-55.9L802.1 290.8c-19.7-17.7-50.1-16.1-67.8 3.6-17.7 19.7-16.1 50.1 3.6 67.8l166.3 149.7-167.3 150.5c-19.7 17.7-21.3 48.1-3.6 67.8 17.7 19.7 48.1 21.3 67.8 3.6l205.1-184.7c5.6-5.1 9.8-11.2 12.4-17.8zm-898.7-19.9l166.3-149.7c19.7-17.7 21.3-48.1 3.6-67.8-17.7-19.7-48.1-21.3-67.8-3.6L16.9 475c-16 14.4-20.1 37.3-11.4 55.9 2.6 6.6 6.8 12.7 12.4 17.8L223 733.4c19.7 17.7 50.1 16.1 67.8-3.6 17.7-19.7 16.1-50.1-3.6-67.8L119.9 511.4z" fill="#fff" opacity=".78"/></svg>